<svg width="300" height="398" viewBox="0 0 300 398" fill="none" xmlns="http://www.w3.org/2000/svg">
<path fill-rule="evenodd" clip-rule="evenodd" d="M86.659 145.75L87.3082 212.392L154.116 212.98C167.336 213.112 180.222 209.334 191.144 202.123C202.066 194.912 210.534 184.593 215.477 172.471C220.419 160.348 221.614 146.967 218.91 134.02C216.206 121.073 209.725 109.141 200.287 99.7343C190.848 90.3276 178.876 83.8684 165.885 81.1736C152.894 78.4788 139.468 79.6697 127.305 84.5954C115.141 89.5212 104.787 97.9606 97.5523 108.846C90.3172 119.732 86.5263 132.574 86.659 145.75ZM135.783 164.08C147.551 175.809 166.592 175.847 178.313 164.166C190.034 152.485 189.995 133.507 178.227 121.779C166.459 110.051 147.418 110.012 135.697 121.694C123.977 133.375 124.015 152.352 135.783 164.08Z" fill="white"/>
<path fill-rule="evenodd" clip-rule="evenodd" d="M13.5598 142.231C13.8345 63.632 77.8509 0 156.779 0C235.878 0 300 63.9063 300 142.739C300 220.449 237.691 283.655 160.149 285.439C159.764 285.465 159.377 285.478 158.986 285.478C158.796 285.478 158.607 285.475 158.419 285.468C158.245 285.47 158.071 285.472 157.897 285.473V285.444C148.568 284.86 141.176 276.82 141.176 266.988C141.176 257.156 148.568 249.117 157.897 248.533V248.513C215.317 247.782 261.637 201.333 261.637 144.143C261.637 86.4956 214.575 39.7634 156.522 39.7634C99.1113 39.7634 52.4506 85.4659 51.4239 142.231H51.4024C51.1896 151.979 42.8568 159.819 32.6087 159.819C22.3605 159.819 14.0277 151.979 13.8149 142.231H13.5598Z" fill="url(#paint0_linear_27:47)"/>
<path d="M49.3967 386C49.3967 392.627 44.0241 398 37.3967 398L25.7771 398C19.1496 398 13.7771 392.627 13.7771 386L13.7771 261.978C13.7771 255.35 19.1497 249.978 25.7771 249.978L37.3967 249.978C44.0241 249.978 49.3967 255.35 49.3967 261.978L49.3967 386Z" fill="white"/>
<path fill-rule="evenodd" clip-rule="evenodd" d="M135.477 285.478C129.129 281.748 124.87 274.864 124.87 266.988C124.87 260.06 128.166 253.899 133.281 249.978L25.5589 249.978C18.9315 249.978 13.5589 255.35 13.5589 261.978L13.5589 273.478C13.5589 280.105 18.9315 285.478 25.5589 285.478L135.477 285.478Z" fill="white"/>
<path fill-rule="evenodd" clip-rule="evenodd" d="M49.4304 163.642C45.6882 169.969 38.7807 174.214 30.8785 174.214C23.9269 174.214 17.7451 170.928 13.8108 165.831L13.8108 273.15C13.8108 279.778 19.1833 285.15 25.8108 285.15L37.4304 285.15C44.0578 285.15 49.4304 279.778 49.4304 273.15L49.4304 163.642Z" fill="white"/>
<defs>
<linearGradient id="paint0_linear_27:47" x1="-46.8057" y1="85.6433" x2="390.528" y2="113.286" gradientUnits="userSpaceOnUse">
<stop stop-color="#FF145F"/>
<stop offset="1" stop-color="#FE5855"/>
</linearGradient>
</defs>
</svg>
