<svg width="570" height="559" viewBox="0 0 570 559" fill="none" xmlns="http://www.w3.org/2000/svg">
<path d="M285 496.345L150.575 364.515C123.991 338.46 105.883 305.259 98.5413 269.111C91.2 232.962 94.9554 195.49 109.332 161.435C123.709 127.38 148.062 98.2718 179.31 77.7918C210.558 57.3118 247.298 46.3805 284.881 46.3805C322.465 46.3805 359.205 57.3118 390.453 77.7918C421.701 98.2718 446.053 127.38 460.43 161.435C474.807 195.49 478.563 232.962 471.221 269.111C463.88 305.259 445.772 338.46 419.188 364.515L285 496.345Z" fill="url(#paint0_linear_12:8)"/>
<path d="M285 496.345L283.25 498.13C284.222 499.084 285.78 499.084 286.752 498.129L285 496.345ZM150.575 364.515L152.326 362.73L152.325 362.729L150.575 364.515ZM284.881 46.3805L284.881 48.8805L284.881 46.3805ZM419.188 364.515L417.438 362.729L417.435 362.731L419.188 364.515ZM286.751 494.561L152.326 362.73L148.825 366.3L283.25 498.13L286.751 494.561ZM152.325 362.729C126.094 337.021 108.232 304.267 100.991 268.613L96.0913 269.608C103.533 306.251 121.887 339.899 148.825 366.3L152.325 362.729ZM100.991 268.613C93.7504 232.959 97.454 196 111.635 162.408L107.029 160.463C92.4567 194.981 88.6495 232.965 96.0913 269.608L100.991 268.613ZM111.635 162.408C125.817 128.815 149.843 100.094 180.68 79.8827L177.94 75.7009C146.281 96.4498 121.601 125.946 107.029 160.463L111.635 162.408ZM180.68 79.8827C211.519 59.6713 247.781 48.8805 284.881 48.8805L284.881 43.8805C246.814 43.8805 209.597 54.9523 177.94 75.7009L180.68 79.8827ZM284.881 48.8805C321.981 48.8805 358.244 59.6713 389.082 79.8827L391.823 75.7008C360.165 54.9523 322.949 43.8805 284.881 43.8805L284.881 48.8805ZM389.082 79.8827C419.92 100.094 443.945 128.815 458.127 162.408L462.733 160.463C448.161 125.946 423.481 96.4497 391.823 75.7008L389.082 79.8827ZM458.127 162.408C472.309 196 476.012 232.959 468.771 268.613L473.671 269.608C481.113 232.965 477.306 194.981 462.733 160.463L458.127 162.408ZM468.771 268.613C461.53 304.267 443.669 337.021 417.438 362.729L420.937 366.3C447.875 339.899 466.23 306.251 473.671 269.608L468.771 268.613ZM417.435 362.731L283.248 494.562L286.752 498.129L420.94 366.298L417.435 362.731Z" fill="black"/>
<path d="M175.75 145.625H241C252.537 145.625 263.601 150.208 271.759 158.366C279.917 166.524 284.5 177.588 284.5 189.125V341.375C284.5 332.722 281.063 324.424 274.944 318.306C268.826 312.187 260.528 308.75 251.875 308.75H175.75V145.625Z" fill="white" stroke="black" stroke-width="5" stroke-linecap="round" stroke-linejoin="round"/>
<path d="M393.25 145.625H328C316.463 145.625 305.399 150.208 297.241 158.366C289.083 166.524 284.5 177.588 284.5 189.125V341.375C284.5 332.722 287.937 324.424 294.056 318.306C300.174 312.187 308.472 308.75 317.125 308.75H393.25V145.625Z" fill="white" stroke="black" stroke-width="5" stroke-linecap="round" stroke-linejoin="round"/>
<rect x="311.634" y="172.436" width="60.7277" height="5.16831" rx="2.58416" fill="black"/>
<rect x="302.589" y="199.569" width="77.5248" height="5.16832" rx="2.58416" fill="black"/>
<rect x="302.589" y="240.916" width="77.5248" height="5.1683" rx="2.58415" fill="black"/>
<rect x="302.589" y="268.05" width="55.5594" height="5.16832" rx="2.58416" fill="black"/>
<rect x="298.713" y="185.357" width="45.2228" height="5.16831" rx="2.58416" fill="black"/>
<rect x="298.713" y="226.703" width="45.2228" height="5.16833" rx="2.58416" fill="black"/>
<rect x="296.129" y="213.782" width="37.4703" height="5.16831" rx="2.58416" fill="black"/>
<rect x="296.129" y="255.129" width="37.4703" height="5.1683" rx="2.58415" fill="black"/>
<rect x="296.129" y="282.262" width="37.4703" height="5.16833" rx="2.58417" fill="black"/>
<rect x="354.272" y="185.357" width="27.1336" height="5.16831" rx="2.58416" fill="black"/>
<rect x="354.272" y="226.703" width="27.1336" height="5.16833" rx="2.58416" fill="black"/>
<rect x="338.767" y="213.782" width="41.3465" height="5.16831" rx="2.58416" fill="black"/>
<rect x="338.767" y="255.129" width="41.3465" height="5.1683" rx="2.58415" fill="black"/>
<rect x="338.767" y="282.262" width="41.3465" height="5.16833" rx="2.58417" fill="black"/>
<rect x="311.634" y="172.436" width="60.7277" height="5.16831" rx="2.58416" fill="#989898"/>
<rect x="302.589" y="199.569" width="77.5248" height="5.16832" rx="2.58416" fill="#989898"/>
<rect x="302.589" y="240.916" width="77.5248" height="5.1683" rx="2.58415" fill="#989898"/>
<rect x="302.589" y="268.05" width="55.5594" height="5.16832" rx="2.58416" fill="#989898"/>
<rect x="298.713" y="185.356" width="45.2228" height="5.16831" rx="2.58416" fill="#989898"/>
<rect x="298.713" y="226.703" width="45.2228" height="5.16833" rx="2.58416" fill="#989898"/>
<rect x="296.129" y="213.782" width="37.4703" height="5.16831" rx="2.58416" fill="#989898"/>
<rect x="296.129" y="255.129" width="37.4703" height="5.1683" rx="2.58415" fill="#989898"/>
<rect x="296.129" y="282.262" width="37.4703" height="5.16833" rx="2.58417" fill="#989898"/>
<rect x="354.272" y="185.356" width="27.1337" height="5.16831" rx="2.58416" fill="#989898"/>
<rect x="354.272" y="226.703" width="27.1337" height="5.16833" rx="2.58416" fill="#989898"/>
<rect x="338.767" y="213.782" width="41.3465" height="5.16831" rx="2.58416" fill="#989898"/>
<rect x="338.767" y="255.129" width="41.3465" height="5.1683" rx="2.58415" fill="#989898"/>
<rect x="338.767" y="282.262" width="41.3465" height="5.16833" rx="2.58417" fill="#989898"/>
<rect width="59.8076" height="5.16831" rx="2.58416" transform="matrix(-1 0 0 1 256.309 172.436)" fill="#989898"/>
<rect width="76.3501" height="5.16832" rx="2.58416" transform="matrix(-1 0 0 1 265.217 199.569)" fill="#989898"/>
<rect width="76.3501" height="5.1683" rx="2.58415" transform="matrix(-1 0 0 1 265.217 240.916)" fill="#989898"/>
<rect width="54.7176" height="5.16832" rx="2.58416" transform="matrix(-1 0 0 1 248.718 268)" fill="#989898"/>
<rect width="44.5376" height="5.16831" rx="2.58416" transform="matrix(-1 0 0 1 269.034 185.356)" fill="#989898"/>
<rect width="44.5376" height="5.16833" rx="2.58416" transform="matrix(-1 0 0 1 269.034 226.703)" fill="#989898"/>
<rect width="36.9026" height="5.16831" rx="2.58416" transform="matrix(-1 0 0 1 271.579 213.782)" fill="#989898"/>
<rect width="36.9026" height="5.1683" rx="2.58415" transform="matrix(-1 0 0 1 271.579 255.129)" fill="#989898"/>
<rect width="36.9026" height="5.16833" rx="2.58417" transform="matrix(-1 0 0 1 271.579 282.262)" fill="#989898"/>
<rect width="26.7225" height="5.16831" rx="2.58416" transform="matrix(-1 0 0 1 214.317 185.356)" fill="#989898"/>
<rect width="26.7225" height="5.16833" rx="2.58416" transform="matrix(-1 0 0 1 214.317 226.703)" fill="#989898"/>
<rect width="40.7201" height="5.16831" rx="2.58416" transform="matrix(-1 0 0 1 229.587 213.782)" fill="#989898"/>
<rect width="40.7201" height="5.1683" rx="2.58415" transform="matrix(-1 0 0 1 229.587 255.129)" fill="#989898"/>
<rect width="40.7201" height="5.16833" rx="2.58417" transform="matrix(-1 0 0 1 229.587 282.262)" fill="#989898"/>
<defs>
<linearGradient id="paint0_linear_12:8" x1="554.964" y1="361.356" x2="-25.8902" y2="330.455" gradientUnits="userSpaceOnUse">
<stop stop-color="#FF145F"/>
<stop offset="1" stop-color="#FE5855"/>
</linearGradient>
</defs>
</svg>
