<svg width="346" height="115" viewBox="0 0 346 115" fill="none" xmlns="http://www.w3.org/2000/svg">
<path d="M15.3096 33.7851C15.3096 35.9625 17.0747 37.7276 19.2521 37.7276C21.4294 37.7276 23.1945 35.9625 23.1945 33.7851V30.6606C23.1945 27.8991 25.4331 25.6606 28.1945 25.6606H29.8229C38.3998 25.6606 43.3893 20.5539 43.3893 13.121C43.3893 5.72456 38.4908 0.50885 30.0232 0.50885H20.3096C17.5482 0.50885 15.3096 2.74743 15.3096 5.50885V33.7851ZM24.1945 19.3545C23.6422 19.3545 23.1945 18.9067 23.1945 18.3545V7.94216C23.1945 7.38988 23.6422 6.94216 24.1945 6.94216H28.5118C33.0643 6.94216 35.2677 9.41372 35.2677 13.121C35.2677 16.8102 33.0643 19.3545 28.5482 19.3545H24.1945Z" fill="white"/>
<path d="M50.83 37.7276C52.5471 37.7276 54.0693 36.6229 54.6017 34.9904L55.3519 32.6903C56.0229 30.6329 57.9414 29.2407 60.1055 29.2407H66.3056C68.4697 29.2407 70.3881 30.6329 71.0592 32.6903L71.809 34.9895C72.3416 36.6225 73.8643 37.7276 75.5819 37.7276C78.3088 37.7276 80.2233 35.0408 79.333 32.4633L69.4584 3.87638C68.7623 1.86101 66.8646 0.50885 64.7324 0.50885H61.6952C59.5638 0.50885 57.6667 1.86001 56.9699 3.87432L47.0806 32.4633C46.1892 35.0403 48.1032 37.7276 50.83 37.7276ZM59.8576 23.0981C59.1779 23.0981 58.6962 22.4346 58.9068 21.7883L62.1473 11.8426C62.4442 10.9313 63.7292 10.9193 64.043 11.825L67.4892 21.7707C67.7143 22.4204 67.2319 23.0981 66.5444 23.0981H59.8576Z" fill="white"/>
<path d="M106.574 8.08877C108.083 9.43294 109.636 11.2129 111.657 11.2129C113.854 11.2129 115.707 9.35068 114.893 7.31043C113.112 2.85024 108.329 0 101.778 0C93.6017 0 87.6106 4.50695 87.647 11.2674C87.6288 16.7557 91.5075 19.8997 97.8082 21.408L101.869 22.4257C105.93 23.4071 108.188 24.5702 108.206 27.0781C108.188 29.804 105.602 31.6577 101.596 31.6577C98.9919 31.6577 96.8514 30.8943 95.5715 29.3816C94.2489 27.8183 92.7042 26.0422 90.6564 26.0422C88.4676 26.0422 86.6262 27.8878 87.2886 29.9741C89.0254 35.444 94.2493 38.2546 101.687 38.2546C110.792 38.2546 116.146 33.9112 116.164 27.0962C116.146 20.8992 111.466 17.6098 104.983 16.156L101.632 15.3564C98.3909 14.6113 95.6776 13.4118 95.7322 10.7404C95.7322 8.3415 97.8628 6.5787 101.723 6.5787C103.826 6.5787 105.476 7.11046 106.574 8.08877Z" fill="white"/>
<path d="M143.253 8.08877C144.761 9.43294 146.315 11.2129 148.335 11.2129C150.532 11.2129 152.386 9.35068 151.571 7.31043C149.79 2.85024 145.007 0 138.457 0C130.28 0 124.289 4.50695 124.326 11.2674C124.307 16.7557 128.186 19.8997 134.487 21.408L138.548 22.4257C142.608 23.4071 144.866 24.5702 144.885 27.0781C144.866 29.804 142.281 31.6577 138.274 31.6577C135.671 31.6577 133.53 30.8943 132.25 29.3816C130.927 27.8183 129.383 26.0422 127.335 26.0422C125.146 26.0422 123.305 27.8878 123.967 29.9741C125.704 35.444 130.928 38.2546 138.365 38.2546C147.47 38.2546 152.824 33.9112 152.842 27.0962C152.824 20.8992 148.144 17.6098 141.661 16.156L138.311 15.3564C135.069 14.6113 132.356 13.4118 132.411 10.7404C132.411 8.3415 134.541 6.5787 138.402 6.5787C140.505 6.5787 142.155 7.11046 143.253 8.08877Z" fill="white"/>
<path d="M195.494 19.1182C195.494 6.94216 187.918 0 178.03 0C168.088 0 160.567 6.94216 160.567 19.1182C160.567 31.2397 168.088 38.2364 178.03 38.2364C187.918 38.2364 195.494 31.2942 195.494 19.1182ZM187.5 19.1182C187.5 27.0054 183.748 31.2761 178.03 31.2761C172.294 31.2761 168.561 27.0054 168.561 19.1182C168.561 11.231 172.294 6.96034 178.03 6.96034C183.748 6.96034 187.5 11.231 187.5 19.1182Z" fill="white"/>
<path d="M223.12 8.08877C224.629 9.43294 226.182 11.2129 228.202 11.2129C230.399 11.2129 232.253 9.35068 231.438 7.31043C229.657 2.85024 224.875 0 218.324 0C210.147 0 204.156 4.50695 204.193 11.2674C204.175 16.7557 208.053 19.8997 214.354 21.408L218.415 22.4257C222.476 23.4071 224.734 24.5702 224.752 27.0781C224.734 29.804 222.148 31.6577 218.142 31.6577C215.538 31.6577 213.397 30.8943 212.117 29.3816C210.795 27.8183 209.25 26.0422 207.202 26.0422C205.013 26.0422 203.172 27.8878 203.834 29.9741C205.571 35.444 210.795 38.2546 218.233 38.2546C227.338 38.2546 232.691 33.9112 232.71 27.0962C232.691 20.8992 228.011 17.6098 221.529 16.156L218.178 15.3564C214.937 14.6113 212.223 13.4118 212.278 10.7404C212.278 8.3415 214.409 6.5787 218.269 6.5787C220.372 6.5787 222.022 7.11046 223.12 8.08877Z" fill="white"/>
<path d="M269.255 37.7276C280.618 37.7276 287.502 30.7127 287.502 19.0819C287.502 7.48736 280.618 0.50885 269.365 0.50885H261.035C258.274 0.50885 256.035 2.74743 256.035 5.50885V32.7276C256.035 35.489 258.274 37.7276 261.035 37.7276H269.255ZM268.928 30.9853C266.166 30.9853 263.92 28.7467 263.92 25.9853V12.2511C263.92 9.48969 266.184 7.25111 268.946 7.25111C275.938 7.25111 279.635 10.8131 279.635 19.0819C279.635 27.387 275.938 30.9853 268.928 30.9853Z" fill="white"/>
<path d="M330.69 19.1182C330.69 6.94216 323.115 0 313.227 0C303.284 0 295.764 6.94216 295.764 19.1182C295.764 31.2397 303.284 38.2364 313.227 38.2364C323.115 38.2364 330.69 31.2942 330.69 19.1182ZM322.696 19.1182C322.696 27.0054 318.945 31.2761 313.227 31.2761C307.491 31.2761 303.758 27.0054 303.758 19.1182C303.758 11.231 307.491 6.96034 313.227 6.96034C318.945 6.96034 322.696 11.231 322.696 19.1182Z" fill="white"/>
<path d="M0 110.549C0 112.726 1.76509 114.491 3.94245 114.491C6.1198 114.491 7.88489 112.726 7.88489 110.549V107.424C7.88489 104.663 10.1235 102.424 12.8849 102.424H14.5133C23.0902 102.424 28.0797 97.3175 28.0797 89.8846C28.0797 82.4881 23.1812 77.2724 14.7136 77.2724H4.99999C2.23857 77.2724 0 79.511 0 82.2724V110.549ZM8.88489 96.118C8.33261 96.118 7.88489 95.6703 7.88489 95.118V84.7057C7.88489 84.1535 8.33261 83.7057 8.88489 83.7057H13.2022C17.7547 83.7057 19.9581 86.1773 19.9581 89.8846C19.9581 93.5738 17.7547 96.118 13.2386 96.118H8.88489Z" fill="white"/>
<path d="M35.5203 114.491C37.2375 114.491 38.7597 113.386 39.2921 111.754L40.0423 109.454C40.7133 107.396 42.6317 106.004 44.7958 106.004H50.996C53.1601 106.004 55.0785 107.396 55.7495 109.454L56.4994 111.753C57.032 113.386 58.5547 114.491 60.2723 114.491C62.9992 114.491 64.9137 111.804 64.0234 109.227L54.1488 80.64C53.4526 78.6246 51.555 77.2724 49.4228 77.2724H46.3856C44.2541 77.2724 42.3571 78.6236 41.6603 80.6379L31.771 109.227C30.8796 111.804 32.7936 114.491 35.5203 114.491ZM44.548 99.8617C43.8683 99.8617 43.3866 99.1982 43.5972 98.5519L46.8377 88.6062C47.1346 87.6949 48.4196 87.6829 48.7334 88.5886L52.1796 98.5343C52.4047 99.184 51.9223 99.8617 51.2347 99.8617H44.548Z" fill="white"/>
<path d="M67.3798 80.5163C67.3798 82.3079 68.8321 83.7603 70.6237 83.7603H73.7974C76.5588 83.7603 78.7974 85.9988 78.7974 88.7603V110.594C78.7974 112.746 80.5421 114.491 82.6943 114.491C84.8465 114.491 86.5912 112.746 86.5912 110.594V88.7603C86.5912 85.9988 88.8298 83.7603 91.5912 83.7603H94.7649C96.5565 83.7603 98.0088 82.3079 98.0088 80.5163C98.0088 78.7248 96.5565 77.2724 94.7649 77.2724H70.6237C68.8321 77.2724 67.3798 78.7248 67.3798 80.5163Z" fill="white"/>
<path d="M106.13 110.549C106.13 112.726 107.895 114.491 110.072 114.491C112.25 114.491 114.015 112.726 114.015 110.549V104.896C114.015 102.909 115.626 101.297 117.614 101.297C118.941 101.297 120.16 102.028 120.786 103.197L125.758 112.481C126.421 113.719 127.711 114.491 129.114 114.491C132.006 114.491 133.842 111.393 132.453 108.856L127.617 100.025C131.86 98.208 134.209 94.5188 134.209 89.4303C134.209 82.0338 129.311 77.2724 120.843 77.2724H111.13C108.368 77.2724 106.13 79.511 106.13 82.2724V110.549ZM115.015 94.9731C114.462 94.9731 114.015 94.5254 114.015 93.9731V84.7057C114.015 84.1535 114.462 83.7057 115.015 83.7057H119.332C123.884 83.7057 126.088 85.723 126.088 89.4303C126.088 93.1195 123.884 94.9731 119.368 94.9731H115.015Z" fill="white"/>
<path d="M150.743 81.2149C150.743 79.0375 148.978 77.2724 146.801 77.2724C144.623 77.2724 142.858 79.0375 142.858 81.2149V110.549C142.858 112.726 144.623 114.491 146.801 114.491C148.978 114.491 150.743 112.726 150.743 110.549V81.2149Z" fill="white"/>
<path d="M165.307 77.2724C162.546 77.2724 160.307 79.511 160.307 82.2724V110.667C160.307 112.779 162.019 114.491 164.131 114.491C166.243 114.491 167.955 112.779 167.955 110.667V90.36C167.955 90.258 168.038 90.1754 168.14 90.1754C168.216 90.1754 168.283 90.2214 168.311 90.2915L176.949 111.89C177.533 113.351 178.948 114.309 180.522 114.309C182.094 114.309 183.508 113.353 184.094 111.895L192.729 90.3822C192.757 90.3121 192.825 90.2663 192.9 90.2663C193.002 90.2663 193.085 90.349 193.085 90.451V110.667C193.085 112.779 194.797 114.491 196.909 114.491C199.021 114.491 200.733 112.779 200.733 110.667V82.2724C200.733 79.511 198.495 77.2724 195.733 77.2724H194.361C192.333 77.2724 190.506 78.4971 189.736 80.3728L180.822 102.077C180.772 102.199 180.653 102.279 180.52 102.279C180.388 102.279 180.269 102.199 180.219 102.077L171.305 80.3728C170.534 78.4971 168.707 77.2724 166.68 77.2724H165.307Z" fill="white"/>
<path d="M244.577 95.8818C244.577 83.7057 237.002 76.7636 227.114 76.7636C217.172 76.7636 209.651 83.7057 209.651 95.8818C209.651 108.003 217.172 115 227.114 115C237.002 115 244.577 108.058 244.577 95.8818ZM236.583 95.8818C236.583 103.769 232.832 108.04 227.114 108.04C221.378 108.04 217.645 103.769 217.645 95.8818C217.645 87.9946 221.378 83.7239 227.114 83.7239C232.832 83.7239 236.583 87.9946 236.583 95.8818ZM221.844 73.9649C222.864 73.9649 223.83 73.5095 224.479 72.7231C225.846 71.0674 228.383 71.0674 229.749 72.7231C230.398 73.5095 231.365 73.9649 232.385 73.9649H237.202C237.303 73.9649 237.385 73.883 237.385 73.7821C237.385 73.7361 237.367 73.6917 237.336 73.6579L231.476 67.3199C230.529 66.2963 229.199 65.7143 227.805 65.7143H226.409C225.013 65.7143 223.68 66.2981 222.734 67.3244L216.892 73.6579C216.861 73.6917 216.844 73.736 216.844 73.782C216.844 73.883 216.926 73.9649 217.027 73.9649H221.844Z" fill="white"/>
<path d="M284.689 81.1967C284.689 79.0294 282.932 77.2724 280.764 77.2724C278.597 77.2724 276.84 79.0294 276.84 81.1967V100.465C276.84 100.583 276.744 100.68 276.625 100.68C276.555 100.68 276.488 100.645 276.448 100.586L261.766 79.2376C260.92 78.0074 259.523 77.2724 258.03 77.2724C255.525 77.2724 253.495 79.3027 253.495 81.8072V110.549C253.495 112.726 255.26 114.491 257.438 114.491C259.615 114.491 261.38 112.726 261.38 110.549V91.2452C261.38 91.1461 261.46 91.0659 261.559 91.0659C261.618 91.0659 261.673 91.0947 261.707 91.1431L276.545 112.567C277.38 113.772 278.753 114.491 280.219 114.491C282.688 114.491 284.689 112.49 284.689 110.022V81.1967Z" fill="white"/>
<path d="M302.165 81.2149C302.165 79.0375 300.4 77.2724 298.222 77.2724C296.045 77.2724 294.28 79.0375 294.28 81.2149V110.549C294.28 112.726 296.045 114.491 298.222 114.491C300.4 114.491 302.165 112.726 302.165 110.549V81.2149Z" fill="white"/>
<path d="M346 95.8818C346 83.7057 338.425 76.7636 328.537 76.7636C318.594 76.7636 311.073 83.7057 311.073 95.8818C311.073 108.003 318.594 115 328.537 115C338.425 115 346 108.058 346 95.8818ZM338.006 95.8818C338.006 103.769 334.255 108.04 328.537 108.04C322.801 108.04 319.068 103.769 319.068 95.8818C319.068 87.9946 322.801 83.7239 328.537 83.7239C334.255 83.7239 338.006 87.9946 338.006 95.8818Z" fill="white"/>
</svg>
