<?xml version="1.0" standalone="no"?>
<!DOCTYPE svg PUBLIC "-//W3C//DTD SVG 20010904//EN"
 "http://www.w3.org/TR/2001/REC-SVG-20010904/DTD/svg10.dtd">
<svg version="1.0" xmlns="http://www.w3.org/2000/svg"
 width="398.000000pt" height="398.000000pt" viewBox="0 0 398.000000 398.000000"
 preserveAspectRatio="xMidYMid meet">
<metadata>
Created by potrace 1.14, written by Peter Selinger 2001-2017
</metadata>
<g transform="translate(0.000000,398.000000) scale(0.100000,-0.100000)"
fill="#000000" stroke="none">
<path d="M1880 3970 c-166 -28 -166 -28 -279 -66 -363 -121 -668 -389 -833
-734 -39 -82 -89 -218 -104 -285 -24 -108 -34 -187 -36 -286 -1 -62 3 -83 22
-117 56 -99 182 -129 273 -66 55 38 76 85 83 175 24 364 206 660 518 847 218
131 495 175 751 121 198 -42 372 -137 521 -284 402 -397 414 -1029 26 -1449
-183 -198 -425 -309 -724 -330 -37 -3 -80 -12 -95 -20 -142 -73 -128 -289 22
-340 105 -36 442 30 645 127 216 103 448 300 571 487 119 181 203 392 233 590
15 95 15 341 1 425 -29 176 -95 359 -179 503 -219 371 -574 616 -1001 693 -73
13 -353 19 -415 9z"/>
<path d="M1988 3185 c-2 -1 -28 -5 -60 -9 -138 -14 -274 -83 -383 -192 -134
-135 -186 -276 -187 -509 -1 -277 5 -615 11 -616 3 -1 175 -3 383 -5 352 -3
381 -2 448 17 233 64 412 238 470 457 104 393 -169 799 -570 847 -79 10 -109
12 -112 10z m206 -369 c60 -29 103 -73 138 -139 32 -60 32 -193 0 -254 -34
-65 -78 -110 -137 -139 -170 -83 -369 4 -422 185 -46 159 42 318 207 372 48
16 156 3 214 -25z"/>
<path d="M967 2315 c-3 -7 -30 -28 -59 -44 -82 -48 -182 -40 -246 18 -17 17
-32 27 -32 23 0 -4 -1 -505 -1 -1113 -1 -1143 -2 -1128 37 -1166 23 -24 65
-33 145 -33 89 0 126 13 154 57 18 26 19 61 21 543 1 283 2 517 3 520 0 3 190
5 421 5 231 0 420 3 420 7 0 4 -9 12 -19 17 -30 17 -71 109 -71 160 0 52 30
125 62 152 20 18 10 19 -398 21 l-419 3 0 423 c0 232 -3 422 -6 422 -4 0 -9
-7 -12 -15z"/>
</g>
</svg>
